<?xml version="1.0" encoding="UTF-8"?>
<svg width="512" height="512" viewBox="0 0 512 512" xmlns="http://www.w3.org/2000/svg">
  <defs>
    <linearGradient id="gradient" x1="0%" y1="0%" x2="100%" y2="100%">
      <stop offset="0%" style="stop-color:#444444;stop-opacity:1" />
      <stop offset="100%" style="stop-color:#333333;stop-opacity:1" />
    </linearGradient>
  </defs>
  <rect width="512" height="512" fill="url(#gradient)" rx="100" ry="100" />
  <g transform="translate(256,256) scale(0.8)">
    <!-- Box/Package icon -->
    <rect x="-120" y="-120" width="240" height="240" fill="none" stroke="white" stroke-width="20" rx="20" ry="20" />
    <line x1="-120" y1="-40" x2="120" y2="-40" stroke="white" stroke-width="15" />
    <line x1="0" y1="-120" x2="0" y2="120" stroke="white" stroke-width="15" />
    
    <!-- Hand icon -->
    <path d="M 60,80 C 80,70 100,90 90,110 L 60,160 C 40,190 0,190 -20,160 L -90,60 C -100,40 -80,20 -60,30 L 10,100 L 10,0 C 10,-20 40,-20 40,0 L 40,70 Z" 
          fill="white" transform="translate(20, 0) scale(0.5)" />
  </g>
  <text x="256" y="440" text-anchor="middle" fill="white" font-family="Arial, sans-serif" font-size="50" font-weight="bold">StockNaMão</text>
</svg> 